<mxfile host="Electron" modified="2023-10-13T10:21:41.579Z" agent="Mozilla/5.0 (Windows NT 10.0; Win64; x64) AppleWebKit/537.36 (KHTML, like Gecko) draw.io/22.0.0 Chrome/114.0.5735.289 Electron/25.8.3 Safari/537.36" etag="Lcu6Bt9zgoo2D7l9wjpR" version="22.0.0" type="device">
  <diagram name="Page-1" id="aAPnYjN7bhrurDYYG_21">
    <mxGraphModel dx="1036" dy="606" grid="1" gridSize="10" guides="1" tooltips="1" connect="1" arrows="1" fold="1" page="1" pageScale="1" pageWidth="827" pageHeight="1169" math="0" shadow="0">
      <root>
        <mxCell id="0" />
        <mxCell id="1" parent="0" />
        <mxCell id="hZOv7A1Kr61WpiHpfzSK-2" value="count()" style="rounded=1;whiteSpace=wrap;html=1;sketch=1;hachureGap=4;jiggle=2;curveFitting=1;fontFamily=Architects Daughter;fontSource=https%3A%2F%2Ffonts.googleapis.com%2Fcss%3Ffamily%3DArchitects%2BDaughter;fontSize=20;fillColor=#f5f5f5;strokeColor=#666666;fontStyle=1;fontColor=#333333;" parent="1" vertex="1">
          <mxGeometry x="230" y="150" width="120" height="70" as="geometry" />
        </mxCell>
        <mxCell id="hZOv7A1Kr61WpiHpfzSK-3" value="" style="shape=flexArrow;endArrow=classic;html=1;rounded=0;sketch=1;hachureGap=4;jiggle=2;curveFitting=1;fontFamily=Architects Daughter;fontSource=https%3A%2F%2Ffonts.googleapis.com%2Fcss%3Ffamily%3DArchitects%2BDaughter;fontSize=16;entryX=0;entryY=0.5;entryDx=0;entryDy=0;width=7;" parent="1" edge="1">
          <mxGeometry width="50" height="50" relative="1" as="geometry">
            <mxPoint x="350" y="185" as="sourcePoint" />
            <mxPoint x="470" y="185" as="targetPoint" />
          </mxGeometry>
        </mxCell>
        <mxCell id="hZOv7A1Kr61WpiHpfzSK-4" value="" style="shape=flexArrow;endArrow=classic;html=1;rounded=0;sketch=1;hachureGap=4;jiggle=2;curveFitting=1;fontFamily=Architects Daughter;fontSource=https%3A%2F%2Ffonts.googleapis.com%2Fcss%3Ffamily%3DArchitects%2BDaughter;fontSize=16;entryX=0;entryY=0.5;entryDx=0;entryDy=0;width=7;" parent="1" edge="1">
          <mxGeometry width="50" height="50" relative="1" as="geometry">
            <mxPoint x="90" y="185" as="sourcePoint" />
            <mxPoint x="230" y="185" as="targetPoint" />
          </mxGeometry>
        </mxCell>
        <mxCell id="hZOv7A1Kr61WpiHpfzSK-5" value="" style="group" parent="1" vertex="1" connectable="0">
          <mxGeometry x="106" y="175" width="88.5" height="20" as="geometry" />
        </mxCell>
        <mxCell id="hZOv7A1Kr61WpiHpfzSK-6" value="" style="rounded=1;whiteSpace=wrap;html=1;hachureGap=4;fontFamily=Architects Daughter;fontSource=https%3A%2F%2Ffonts.googleapis.com%2Fcss%3Ffamily%3DArchitects%2BDaughter;fontSize=20;fillColor=#d5e8d4;strokeColor=#82b366;" parent="hZOv7A1Kr61WpiHpfzSK-5" vertex="1">
          <mxGeometry x="58" width="10" height="20" as="geometry" />
        </mxCell>
        <mxCell id="hZOv7A1Kr61WpiHpfzSK-7" value="" style="rounded=1;whiteSpace=wrap;html=1;hachureGap=4;fontFamily=Architects Daughter;fontSource=https%3A%2F%2Ffonts.googleapis.com%2Fcss%3Ffamily%3DArchitects%2BDaughter;fontSize=20;fillColor=#dae8fc;strokeColor=#6c8ebf;" parent="hZOv7A1Kr61WpiHpfzSK-5" vertex="1">
          <mxGeometry width="10" height="20" as="geometry" />
        </mxCell>
        <mxCell id="hZOv7A1Kr61WpiHpfzSK-8" value="" style="rounded=1;whiteSpace=wrap;html=1;hachureGap=4;fontFamily=Architects Daughter;fontSource=https%3A%2F%2Ffonts.googleapis.com%2Fcss%3Ffamily%3DArchitects%2BDaughter;fontSize=20;fillColor=#dae8fc;strokeColor=#6c8ebf;" parent="hZOv7A1Kr61WpiHpfzSK-5" vertex="1">
          <mxGeometry x="28" width="10" height="20" as="geometry" />
        </mxCell>
        <mxCell id="hZOv7A1Kr61WpiHpfzSK-9" value="" style="rounded=1;whiteSpace=wrap;html=1;hachureGap=4;fontFamily=Architects Daughter;fontSource=https%3A%2F%2Ffonts.googleapis.com%2Fcss%3Ffamily%3DArchitects%2BDaughter;fontSize=20;fillColor=#dae8fc;strokeColor=#6c8ebf;" parent="1" vertex="1">
          <mxGeometry x="378" y="175" width="10" height="20" as="geometry" />
        </mxCell>
        <mxCell id="hZOv7A1Kr61WpiHpfzSK-10" value="" style="rounded=1;whiteSpace=wrap;html=1;hachureGap=4;fontFamily=Architects Daughter;fontSource=https%3A%2F%2Ffonts.googleapis.com%2Fcss%3Ffamily%3DArchitects%2BDaughter;fontSize=20;fillColor=#f8cecc;strokeColor=#b85450;" parent="1" vertex="1">
          <mxGeometry x="397" y="175" width="10" height="20" as="geometry" />
        </mxCell>
        <mxCell id="hZOv7A1Kr61WpiHpfzSK-11" value="" style="rounded=1;whiteSpace=wrap;html=1;hachureGap=4;fontFamily=Architects Daughter;fontSource=https%3A%2F%2Ffonts.googleapis.com%2Fcss%3Ffamily%3DArchitects%2BDaughter;fontSize=20;fillColor=#f8cecc;strokeColor=#b85450;" parent="1" vertex="1">
          <mxGeometry x="397" y="200" width="10" height="20" as="geometry" />
        </mxCell>
        <mxCell id="hZOv7A1Kr61WpiHpfzSK-12" value="" style="rounded=1;whiteSpace=wrap;html=1;hachureGap=4;fontFamily=Architects Daughter;fontSource=https%3A%2F%2Ffonts.googleapis.com%2Fcss%3Ffamily%3DArchitects%2BDaughter;fontSize=20;fillColor=#dae8fc;strokeColor=#6c8ebf;" parent="1" vertex="1">
          <mxGeometry x="378" y="200" width="10" height="20" as="geometry" />
        </mxCell>
        <mxCell id="hZOv7A1Kr61WpiHpfzSK-13" value="" style="rounded=1;whiteSpace=wrap;html=1;hachureGap=4;fontFamily=Architects Daughter;fontSource=https%3A%2F%2Ffonts.googleapis.com%2Fcss%3Ffamily%3DArchitects%2BDaughter;fontSize=20;fillColor=#dae8fc;strokeColor=#6c8ebf;" parent="1" vertex="1">
          <mxGeometry x="378" y="227" width="10" height="20" as="geometry" />
        </mxCell>
        <mxCell id="hZOv7A1Kr61WpiHpfzSK-15" value="" style="rounded=1;whiteSpace=wrap;html=1;hachureGap=4;fontFamily=Architects Daughter;fontSource=https%3A%2F%2Ffonts.googleapis.com%2Fcss%3Ffamily%3DArchitects%2BDaughter;fontSize=20;fillColor=#f8cecc;strokeColor=#b85450;" parent="1" vertex="1">
          <mxGeometry x="120" y="175" width="10" height="20" as="geometry" />
        </mxCell>
        <mxCell id="hZOv7A1Kr61WpiHpfzSK-16" value="" style="rounded=1;whiteSpace=wrap;html=1;hachureGap=4;fontFamily=Architects Daughter;fontSource=https%3A%2F%2Ffonts.googleapis.com%2Fcss%3Ffamily%3DArchitects%2BDaughter;fontSize=20;fillColor=#dae8fc;strokeColor=#6c8ebf;" parent="1" vertex="1">
          <mxGeometry x="148" y="175" width="10" height="20" as="geometry" />
        </mxCell>
        <mxCell id="NOh2_o1j7pYCa5WhnzW8-2" value="𝜮&amp;nbsp; = 3" style="text;html=1;align=center;verticalAlign=middle;resizable=0;points=[];autosize=1;strokeColor=none;fillColor=none;fontSize=35;fontFamily=Architects Daughter;" parent="1" vertex="1">
          <mxGeometry x="230" y="220" width="120" height="60" as="geometry" />
        </mxCell>
        <mxCell id="NOh2_o1j7pYCa5WhnzW8-3" value="" style="rounded=1;whiteSpace=wrap;html=1;hachureGap=4;fontFamily=Architects Daughter;fontSource=https%3A%2F%2Ffonts.googleapis.com%2Fcss%3Ffamily%3DArchitects%2BDaughter;fontSize=20;fillColor=#f8cecc;strokeColor=#b85450;shadow=1;" parent="1" vertex="1">
          <mxGeometry x="272" y="230" width="10" height="20" as="geometry" />
        </mxCell>
        <mxCell id="NOh2_o1j7pYCa5WhnzW8-4" value="" style="rounded=1;whiteSpace=wrap;html=1;hachureGap=4;fontFamily=Architects Daughter;fontSource=https%3A%2F%2Ffonts.googleapis.com%2Fcss%3Ffamily%3DArchitects%2BDaughter;fontSize=20;fillColor=#dae8fc;strokeColor=#6c8ebf;shadow=1;" parent="1" vertex="1">
          <mxGeometry x="269" y="243" width="12" height="20" as="geometry" />
        </mxCell>
        <mxCell id="eGptmQdCGXKdn-eavb6a-1" value="" style="rounded=1;whiteSpace=wrap;html=1;hachureGap=4;fontFamily=Architects Daughter;fontSource=https%3A%2F%2Ffonts.googleapis.com%2Fcss%3Ffamily%3DArchitects%2BDaughter;fontSize=20;fillColor=#f8cecc;strokeColor=#b85450;" vertex="1" parent="1">
          <mxGeometry x="179" y="175" width="10" height="20" as="geometry" />
        </mxCell>
        <mxCell id="eGptmQdCGXKdn-eavb6a-3" value="" style="rounded=1;whiteSpace=wrap;html=1;hachureGap=4;fontFamily=Architects Daughter;fontSource=https%3A%2F%2Ffonts.googleapis.com%2Fcss%3Ffamily%3DArchitects%2BDaughter;fontSize=20;fillColor=#d5e8d4;strokeColor=#82b366;" vertex="1" parent="1">
          <mxGeometry x="415" y="175" width="10" height="20" as="geometry" />
        </mxCell>
        <mxCell id="eGptmQdCGXKdn-eavb6a-4" value="" style="rounded=1;whiteSpace=wrap;html=1;hachureGap=4;fontFamily=Architects Daughter;fontSource=https%3A%2F%2Ffonts.googleapis.com%2Fcss%3Ffamily%3DArchitects%2BDaughter;fontSize=20;fillColor=#d5e8d4;strokeColor=#82b366;" vertex="1" parent="1">
          <mxGeometry x="279" y="237" width="10" height="20" as="geometry" />
        </mxCell>
      </root>
    </mxGraphModel>
  </diagram>
</mxfile>
